  <svg width="240" height="95" viewBox="0 0 240 95" fill="none" xmlns="http://www.w3.org/2000/svg" style="">
<path d="M2.5 61C8.16667 60.1667 28 32.5 21.5 12C15 -8.50002 46 64.5 29 61C12 57.5 47 21 56.5 6.99998C50 -15 43.5 56 50 61C60 61 71.5 32.5 71.5 32.5L68 61C74.3333 60 88 52.9 92 32.5C97 7 93 112 71.5 89.4999C63.1 73.0999 89 58.5 102.5 42C106.333 34.8333 128 20.5 128 35.5C128 50.5 110.125 72 105 51.5C101 35.5 121.5 25.5 128 32.5C131.5 29.5 135 -6.00003 131.5 6.99998C128 20 128 61 128 61C128 61 159 41.5 161.5 35.5C164 29.5 150 27 144.5 35.5C139 44 144.5 61 153.5 61C168 63.5 169 32.5 182.5 29.5C206.5 29.5 194.6 61 178 61C173.5 61 171.5 51.5 172 42C175 27.5 190.184 24 196 32.5C202.5 42 189.5 57 196 61C202.5 65 211.5 42 211.5 29.5C218 32.5 218 58.5 218 58.5C218 58.5 224.5 68 238 39.5" stroke="white" stroke-width="4" stroke-linecap="round" stroke-linejoin="round" class="xSvvqioW_0"></path>
<style data-made-with="vivus-instant">
  .xSvvqioW_0{
    stroke-dasharray:1072 1074;
    stroke-dashoffset:1073;
    animation:xSvvqioW_draw 2000ms linear 0ms forwards;
  }
  @keyframes xSvvqioW_draw{
    100%{stroke-dashoffset:0;}
  }
  @keyframes xSvvqioW_fade{
    0%{stroke-opacity:1;}94.44444444444444%{stroke-opacity:1;}100%{stroke-opacity:0;}
  }
    </style>
 </svg>